<?xml version="1.0" encoding="UTF-8"?>
<svg width="50px" height="50px" viewBox="0 0 50 50" version="1.1" xmlns="http://www.w3.org/2000/svg" xmlns:xlink="http://www.w3.org/1999/xlink">
    <g id="页面-1" stroke="none" stroke-width="1" fill="none" fill-rule="evenodd">
        <g id="Altlayer-Airdrop2" transform="translate(-95, -50)">
            <g id="编组-4" transform="translate(95, 50)">
                <rect id="矩形" x="0" y="0" width="50" height="50"></rect>
                <g id="AltLayer---Original---Complete---Blue" transform="translate(2, 3)" fill="#6667AB" fill-rule="nonzero">
                    <path d="M24.9876543,44 C25.3111767,44.0004732 25.6316448,43.9362423 25.9307327,43.8108731 C26.2295857,43.6855039 26.5011847,43.5016133 26.7297885,43.2699063 L45.9942913,23.7639367 C46.22313,23.5322535 46.4045093,23.2572501 46.5283265,22.9546037 C46.6521437,22.6519573 46.7160494,22.3275675 46.7160494,21.9999662 C46.7160494,21.6723648 46.6521437,21.347975 46.5283265,21.0453048 C46.4045093,20.7426584 46.22313,20.4676788 45.9942913,20.236067 L26.7297885,0.730121194 C26.5011847,0.498219135 26.2295857,0.314335614 25.9307327,0.189037088 C25.6316448,0.0637392748 25.3111767,-0.000502795621 24.9876543,0 L24.9876543,44 Z" id="路径"></path>
                    <path d="M21.7283951,35.8518519 C21.0981224,35.8518519 20.4678498,35.7006075 19.9871398,35.3919067 L0.721056248,23.1102479 C-0.240352083,22.4972425 -0.240352083,21.502853 0.721056248,20.8898716 L19.9856597,8.60826056 C20.4663697,8.30175789 21.0966423,8.14814815 21.7269149,8.14814815 L21.7283951,35.8518519 Z" id="路径" opacity="0.5"></path>
                    <path d="M21.7283951,27.7037037 C21.0981224,27.7037037 20.4678498,27.5524557 19.9871398,27.2444642 L0.721056248,14.9624611 C-0.240352083,14.3494648 -0.240352083,13.3550274 0.721056248,12.7412904 L19.9856597,0.460128305 C20.463386,0.15135763 21.0966423,0 21.7283951,0 L21.7283951,27.7037037 Z" id="路径" opacity="0.5"></path>
                    <path d="M21.7283951,44 C21.0981224,44 20.4678498,43.8487517 19.9871398,43.5400425 L0.721056248,31.25882 C-0.240352083,30.6449858 -0.240352083,29.650522 0.721056248,29.0376436 L19.9856597,16.7556564 C20.4663697,16.4491694 21.0966423,16.2962963 21.7269149,16.2962963 L21.7283951,44 Z" id="路径" opacity="0.5"></path>
                </g>
            </g>
        </g>
    </g>
</svg>